<?xml version="1.0" encoding="UTF-8"?>
<svg width="1350px" height="1350px" viewBox="0 0 1350 1350" version="1.1" xmlns="http://www.w3.org/2000/svg" xmlns:xlink="http://www.w3.org/1999/xlink">
    <title>logo</title>
    <g id="logo" stroke="none" stroke-width="1" fill="none" fill-rule="evenodd">
        <path d="M618.47041,1350 C802.696104,1350 1026.92115,1114.47191 1135.71007,987.495233 C1220.36093,888.692109 1350,663.081455 1350,524.953827 C1350,343.119089 1146.92861,350.92504 975.342255,259.353482 C849.076382,191.968386 774.043581,0 635.177407,0 C469.120913,0 491.156242,204.208008 372.833501,350.785999 C257.74397,493.358694 0,576.164815 0,731.799753 C0,881.74301 161.946598,940.652189 265.984281,1053.65854 C380.953952,1178.53927 446.507051,1350 618.47041,1350 Z" id="Oval" fill="#F88800"></path>
        <g id="Group" transform="translate(420.000000, 420.000000)" fill="#282828">
            <path d="M261.827309,78.4615385 L261.827309,470.769231 C261.827309,492.435786 244.251339,510 222.570281,510 C200.889223,510 183.313253,492.435786 183.313253,470.769231 L183.313253,470.769231 L183.313253,0 L405.769746,0 L405.769819,0.0858013508 C426.230631,1.4316777 442.409639,18.4430824 442.409639,39.2307692 C442.409639,60.0184561 426.230631,77.0298608 405.769819,78.3757371 L405.769746,78.4615385 L261.827309,78.4615385 Z" id="Combined-Shape"></path>
            <path d="M38.7299215,77.8261117 C17.2806786,77.4824556 0,60.1932644 0,38.9156627 C0,17.4231356 17.6315464,0 39.381161,0 L39.381161,0 L144.39759,0 L144.39759,77.8313253 L39.381161,77.8313253 Z" id="Combined-Shape"></path>
            <path d="M378.582017,196.211613 C357.214686,195.865244 340,178.439559 340,156.993976 C340,135.331771 357.564214,117.771084 379.230769,117.771084 C379.449783,117.771084 379.668377,117.772879 379.886538,117.776453 L379.230769,117.771084 C451.452621,117.771084 510,176.306707 510,248.514056 C510,297.763943 482.76326,340.653626 442.527999,362.947744 L498.900969,443.439218 C505.769983,450.503606 510,460.14647 510,470.777108 C510,492.439313 492.435786,510 470.769231,510 C457.742325,510 446.198397,503.651892 439.063348,493.88099 L438.647284,494.172689 L346.38972,362.441691 L346.819682,362.140117 C342.516594,355.845756 340,348.233778 340,340.034137 C340,318.371932 357.564214,300.811245 379.230769,300.811245 L379.230769,300.811245 C408.11951,300.811893 431.538462,277.397499 431.538462,248.51438 C431.538462,219.631262 408.11951,196.216867 379.230769,196.216867 Z" id="Combined-Shape"></path>
            <path d="M490.542169,117.771084 C494.031789,117.771084 497.279329,116.912651 500.284787,115.195783 C503.290245,113.478916 505.660812,111.116055 507.396487,108.107202 C509.132162,105.098348 510,101.825027 510,98.2872399 C510,94.7841365 509.145865,91.5324936 507.437595,88.5323111 C505.729326,85.5321285 503.363327,83.169268 500.339598,81.4437295 C497.315869,79.7181909 494.050059,78.8554217 490.542169,78.8554217 C487.034278,78.8554217 483.768468,79.7181909 480.74474,81.4437295 C477.721011,83.169268 475.355012,85.5321285 473.646742,88.5323111 C471.938472,91.5324936 471.084337,94.7841365 471.084337,98.2872399 C471.084337,101.807685 471.94304,105.067999 473.660445,108.068182 C475.377849,111.068364 477.739281,113.43556 480.74474,115.16977 C483.750198,116.90398 487.016008,117.771084 490.542169,117.771084 Z M490.542169,114.519441 C487.527575,114.519441 484.768765,113.769396 482.265739,112.269304 C479.762713,110.769213 477.830632,108.779208 476.469498,106.299288 C475.108363,103.819368 474.427796,101.148686 474.427796,98.2872399 C474.427796,95.3390836 475.140336,92.6163746 476.565417,90.1191128 C477.990497,87.621851 479.949983,85.6621942 482.443874,84.2401424 C484.937765,82.8180905 487.637197,82.1070646 490.542169,82.1070646 C493.520222,82.1070646 496.260761,82.8484392 498.763788,84.3311884 C501.266814,85.8139376 503.203462,87.7909365 504.573732,90.2621851 C505.944001,92.7334337 506.629136,95.408452 506.629136,98.2872399 C506.629136,101.166028 505.944001,103.845382 504.573732,106.325301 C503.203462,108.805221 501.271381,110.790891 498.77749,112.282311 C496.283599,113.773731 493.538492,114.519441 490.542169,114.519441 Z M486.595792,109.030668 L486.595792,100.264239 L490.925844,100.264239 C492.332655,100.264239 493.337519,100.554719 493.940438,101.135679 C494.543357,101.716639 494.844816,102.666119 494.844816,103.984118 C494.844816,106.758854 494.963573,108.441037 495.201086,109.030668 L495.201086,109.030668 L499.448922,109.030668 L499.448922,108.614458 C499.26622,108.21559 499.142896,107.72134 499.07895,107.131709 C499.015004,106.542077 498.983031,105.5319 498.983031,104.101177 C498.983031,102.670455 498.772923,101.469514 498.352707,100.498357 C497.932491,99.5271997 497.192545,98.7641475 496.13287,98.2092004 C498.087788,97.1686747 499.065247,95.6945966 499.065247,93.786966 C499.065247,91.6365462 498.284193,89.9543629 496.722086,88.7404162 C495.159978,87.5264695 492.972114,86.9194962 490.158493,86.9194962 L490.158493,86.9194962 L482.457577,86.9194962 L482.457577,109.030668 L486.595792,109.030668 Z M490.103682,96.7784775 L486.595792,96.7784775 L486.595792,90.3792442 L490.459952,90.3792442 C492.159087,90.3965863 493.332952,90.6610533 493.981546,91.1726451 C494.63014,91.6842369 494.954437,92.5470062 494.954437,93.7609529 C494.954437,94.680084 494.493113,95.4127875 493.570465,95.9590635 C492.647817,96.5053395 491.492222,96.7784775 490.103682,96.7784775 L490.103682,96.7784775 Z" id="®-copy" fill-rule="nonzero"></path>
        </g>
    </g>
</svg>